<?xml version="1.0" standalone="no"?>
<!DOCTYPE svg PUBLIC "-//W3C//DTD SVG 20010904//EN"
 "http://www.w3.org/TR/2001/REC-SVG-20010904/DTD/svg10.dtd">
<svg version="1.0" xmlns="http://www.w3.org/2000/svg"
 width="512.000000pt" height="512.000000pt" viewBox="0 0 512.000000 512.000000"
 preserveAspectRatio="xMidYMid meet">

<g transform="translate(0.000000,512.000000) scale(0.100000,-0.100000)"
fill="#000000" stroke="none">
<path d="M0 2560 l0 -2560 2560 0 2560 0 0 2560 0 2560 -2560 0 -2560 0 0
-2560z m3210 155 l0 -94 46 24 c56 30 98 32 141 5 45 -27 65 -73 71 -157 4
-63 1 -79 -21 -126 -42 -85 -120 -117 -202 -83 -19 8 -35 11 -35 5 0 -5 -25
-9 -55 -9 l-55 0 0 265 0 265 55 0 55 0 0 -95z m-1700 40 l0 -45 -60 0 -60 0
0 45 0 45 60 0 60 0 0 -45z m-958 -156 c3 -187 4 -191 27 -210 25 -20 81 -25
111 -9 32 17 40 67 40 241 l0 169 60 0 60 0 0 -182 c-1 -234 -13 -273 -98
-314 -51 -24 -174 -24 -225 1 -21 10 -50 34 -65 53 -27 35 -27 36 -30 239 l-3
203 60 0 60 0 3 -191z m3548 116 l0 -55 55 0 55 0 0 -40 0 -40 -55 0 -55 0 0
-104 c0 -120 7 -132 70 -123 l40 5 0 -38 c0 -43 -12 -50 -90 -50 -55 0 -110
26 -127 60 -8 15 -13 68 -13 138 l0 112 -25 0 c-22 0 -25 4 -25 40 0 36 3 40
25 40 24 0 25 3 25 55 l0 55 60 0 60 0 0 -55z m-2849 -66 c38 -20 49 -71 49
-223 l0 -146 -54 0 -54 0 -3 128 c-4 142 -12 162 -61 162 -65 0 -68 -7 -68
-155 l0 -135 -55 0 -55 0 0 190 0 190 55 0 c48 0 55 -2 55 -20 0 -25 5 -25 38
-1 15 10 36 21 47 24 24 6 83 -1 106 -14z m544 6 c24 -9 41 -11 43 -5 2 6 28
10 58 10 l54 0 0 -260 0 -260 -55 0 -55 0 0 90 c0 89 -6 104 -30 75 -17 -21
-81 -36 -119 -29 -18 4 -44 20 -59 35 -74 79 -68 245 10 317 44 40 92 49 153
27z m974 -13 c46 -34 65 -69 69 -132 l4 -60 -131 0 c-147 0 -157 -6 -102 -61
26 -25 37 -29 88 -29 38 0 72 7 96 19 l37 19 0 -48 c0 -47 -1 -49 -37 -61 -60
-20 -170 -16 -224 8 -65 29 -92 72 -97 151 -8 113 40 188 134 211 52 13 133 4
163 -17z m1016 15 c83 -32 115 -84 115 -186 0 -136 -60 -196 -196 -196 -60 0
-77 4 -111 27 -56 37 -78 86 -77 173 0 100 40 160 123 185 38 12 112 10 146
-3z m738 -6 c24 -9 27 -16 27 -56 0 -25 -2 -45 -5 -45 -3 0 -23 9 -45 20 -69
35 -154 20 -137 -25 4 -8 19 -17 34 -21 82 -18 105 -27 133 -50 24 -21 30 -34
30 -64 0 -22 -5 -50 -11 -63 -27 -59 -164 -93 -259 -65 l-45 14 -3 51 -3 51
47 -24 c54 -27 125 -32 144 -9 17 21 6 43 -27 51 -86 19 -109 28 -135 54 -20
21 -28 38 -28 65 0 66 36 107 115 128 30 8 136 1 168 -12z m-3013 -181 l0
-190 -60 0 -60 0 0 190 0 190 60 0 60 0 0 -190z m650 64 c0 -69 5 -134 10
-145 12 -21 59 -26 91 -9 17 10 19 22 19 145 l0 135 60 0 60 0 0 -190 0 -190
-60 0 c-54 0 -60 2 -60 21 0 21 0 21 -37 -2 -51 -32 -123 -31 -158 1 -36 34
-45 78 -45 228 l0 132 60 0 60 0 0 -126z m2410 -599 l0 -25 -2090 0 -2090 0 0
25 0 25 2090 0 2090 0 0 -25z"/>
<path d="M3227 2567 c-15 -10 -17 -27 -15 -107 l3 -95 29 -3 c72 -9 106 29
106 116 0 64 -28 102 -74 102 -18 0 -40 -6 -49 -13z"/>
<path d="M1731 2563 c-40 -33 -48 -127 -15 -180 11 -17 24 -23 52 -23 66 0 73
12 70 120 l-3 95 -41 3 c-28 2 -48 -3 -63 -15z"/>
<path d="M2600 2570 c-39 -39 -27 -50 55 -50 81 0 88 6 59 48 -20 29 -85 31
-114 2z"/>
<path d="M3661 2561 c-24 -24 -36 -79 -27 -127 14 -70 80 -98 124 -51 31 33
31 132 1 171 -25 32 -70 35 -98 7z"/>
</g>
</svg>
